HIERARCHY
ROOT Hips
{
	OFFSET 0.00 0.00 0.00
	CHANNELS 6 Xposition Yposition Zposition Xrotation Yrotation Zrotation
	JOINT Spine
	{
		OFFSET 0.00000 7.50895 0.00000
		CHANNELS 3 Xrotation Yrotation Zrotation
		JOINT Head
		{
			OFFSET 0.00000 13.86115 0.00000
			CHANNELS 3 Xrotation Yrotation Zrotation
			End Site
			{
				OFFSET 0.00000 4.52755 0.00000
			}
		}
		JOINT LeftShoulder
		{
			OFFSET 0.00000 8.20478 0.00000
			CHANNELS 3 Xrotation Yrotation Zrotation
			JOINT LeftArm
			{
				OFFSET 6.63596 0.00000 0.00000
				CHANNELS 3 Xrotation Yrotation Zrotation
				JOINT LeftForeArm
				{
					OFFSET 10.27422 0.00000 0.00000
					CHANNELS 3 Yrotation Zrotation Xrotation
					JOINT LeftHand
					{
						OFFSET 8.52215 0.00000 0.00000
						CHANNELS 3 Xrotation Yrotation Zrotation
						JOINT LeftHandThumb1
						{
							OFFSET 0.00000 0.00000 0.00000
							CHANNELS 3 Xrotation Zrotation Yrotation
							End Site
							{
								OFFSET 0.00000 0.00000 3.93700
							}
						}
						End Site
						{
							OFFSET 3.93700 0.00000 0.00000
						}
					}
				}
			}
		}
		JOINT RightShoulder
		{
			OFFSET 0.00000 8.20478 0.00000
			CHANNELS 3 Xrotation Yrotation Zrotation
			JOINT RightArm
			{
				OFFSET -6.63596 0.00000 0.00000
				CHANNELS 3 Xrotation Yrotation Zrotation
				JOINT RightForeArm
				{
					OFFSET -10.27422 0.00000 0.00000
					CHANNELS 3 Yrotation Zrotation Xrotation
					JOINT RightHand
					{
						OFFSET -8.52215 0.00000 0.00000
						CHANNELS 3 Xrotation Yrotation Zrotation
						JOINT RightHandThumb1
						{
							OFFSET 0.00000 0.00000 0.00000
							CHANNELS 3 Xrotation Zrotation Yrotation
							End Site
							{
								OFFSET 0.00000 0.00000 3.93700
							}
						}
						End Site
						{
							OFFSET -3.93700 0.00000 0.00000
						}
					}
				}
			}
		}
	}
	JOINT LeftUpLeg
	{
		OFFSET 3.00056 0.00000 0.00000
		CHANNELS 3 Xrotation Yrotation Zrotation
		JOINT LeftLeg
		{
			OFFSET 0.00000 -16.49085 0.00000
			CHANNELS 3 Xrotation Yrotation Zrotation
			JOINT LeftFoot
			{
				OFFSET 0.00000 -14.55658 0.00000
				CHANNELS 3 Xrotation Yrotation Zrotation
				JOINT LeftToeBase
				{
					OFFSET 0.00000 -1.25038 4.66650
					CHANNELS 3 Xrotation Yrotation Zrotation
					End Site
					{
						OFFSET 0.00000 0.00000 2.95275
					}
				}
			}
		}
	}
	JOINT RightUpLeg
	{
		OFFSET -3.00056 0.00000 0.00000
		CHANNELS 3 Xrotation Yrotation Zrotation
		JOINT RightLeg
		{
			OFFSET 0.00000 -16.49085 0.00000
			CHANNELS 3 Xrotation Yrotation Zrotation
			JOINT RightFoot
			{
				OFFSET 0.00000 -14.55658 0.00000
				CHANNELS 3 Xrotation Yrotation Zrotation
				JOINT RightToeBase
				{
					OFFSET 0.00000 -1.25038 4.66650
					CHANNELS 3 Xrotation Yrotation Zrotation
					End Site
					{
						OFFSET 0.00000 0.00000 2.95275
					}
				}
			}
		}
	}
}
MOTION
Frames: 9
Frame Time: 0.008333
 5.0917 25.9105 -0.7316 -87.2326 -3.2626 80.9267 -41.0914 -3.0138 -2.9953 -105.6334 -16.9735 7.3914 -10.6138 71.1537 74.9977 -150.2974 41.2769 -11.1693 -75.6025 -0.0000 31.2350 -33.3505 -13.4884 109.5146 33.1476 -0.0000 26.2537 -41.8726 1.8399 -34.2720 -68.8881 6.8169 6.5033 63.2140 0.0000 47.2045 -7.2145 -0.7773 -83.8830 32.8623 0.0000 -24.3270 40.1117 13.5338 18.9196 71.2394 0.0000 -0.0000 -24.8555 27.1351 -12.0232 8.5044 -0.0000 0.0000 34.5483 -10.2462 -20.0444 68.3836 -0.0000 0.0000 -15.4826 -28.3526 -12.7012 5.6630 0.0000 -0.0000
 5.1124 25.9180 -0.7665 -87.3595 -3.3092 80.9684 -41.0309 -3.1305 -3.3129 -105.3594 -17.5558 7.6137 -10.4759 72.0893 75.5940 -151.5748 41.5363 -10.1422 -75.7714 -0.0000 30.9782 -33.3203 -13.5146 109.5697 33.1476 -0.0000 26.2537 -41.7582 2.0829 -33.9159 -68.6091 6.8186 5.9253 62.9482 0.0000 46.8908 -7.1590 -0.7394 -84.1338 32.8623 0.0000 -24.3270 40.1892 13.4538 18.8932 71.2868 -0.0000 -0.0000 -24.9744 27.1620 -11.8743 8.5015 0.0000 -0.0000 34.6712 -10.3449 -20.0983 68.3047 -0.0000 -0.0000 -15.3317 -28.2113 -12.5144 5.6694 0.0000 0.0000
 5.1310 25.9269 -0.8021 -87.4828 -3.3399 80.9934 -41.0319 -3.2066 -3.5458 -105.3642 -17.8233 7.4504 -9.7919 73.0241 75.6680 -152.8684 41.6963 -9.1015 -75.9294 -0.0000 30.6025 -33.1899 -13.5794 109.7450 33.1476 -0.0000 26.2537 -41.5583 2.0813 -33.7043 -68.7121 6.8513 5.7729 62.6778 0.0000 46.8004 -7.0467 -0.7040 -84.3239 32.8623 0.0000 -24.3270 40.2518 13.3869 18.8750 71.3226 -0.0000 0.0000 -25.0995 27.1555 -11.7071 8.5286 -0.0000 0.0000 34.7876 -10.4172 -20.1361 68.2057 0.0000 0.0000 -15.0437 -28.1613 -12.1457 5.0571 -0.0000 0.0000
 5.1467 25.9361 -0.8372 -87.6071 -3.3431 81.0532 -41.0629 -3.3226 -3.8597 -105.1127 -18.3200 7.6108 -9.5004 73.7064 75.9327 -153.7736 41.6805 -8.3398 -76.0517 -0.0000 30.4040 -33.1543 -13.5913 109.7854 33.1476 -0.0000 26.2537 -41.5138 2.0897 -33.3868 -68.6753 6.9929 5.6859 62.3078 0.0000 46.6745 -6.9000 -0.6605 -84.5581 32.8623 0.0000 -24.3270 40.2880 13.2831 18.8288 71.3537 -0.0000 0.0000 -25.1894 27.1620 -11.5882 8.3966 -0.0000 -0.0000 34.8760 -10.4982 -20.1801 68.1056 -0.0000 0.0000 -14.8109 -27.9874 -11.9462 4.9731 0.0000 0.0000
 5.1664 25.9495 -0.8753 -87.6569 -3.3652 81.0566 -41.0633 -3.3874 -3.9394 -105.0066 -18.9244 7.2464 -8.4603 74.3888 75.2986 -154.6938 41.5020 -7.7065 -76.1139 -0.0000 30.2059 -33.0439 -13.7305 110.0462 33.1476 -0.0000 26.2537 -41.5503 2.1569 -33.3462 -68.6336 6.9370 5.7621 62.0562 0.0000 46.6992 -6.8437 -0.6290 -84.7738 32.8623 0.0000 -24.3270 40.3637 13.2988 18.7791 71.3616 -0.0000 0.0000 -25.2636 27.1957 -11.6077 8.3482 0.0000 0.0000 34.9635 -10.4985 -20.2413 67.9807 0.0000 0.0000 -14.4546 -27.8075 -11.8394 4.5448 0.0000 -0.0000
 5.1815 25.9623 -0.9106 -87.7531 -3.3678 81.0816 -41.1017 -3.4715 -4.1257 -104.8854 -19.3918 7.0603 -7.9128 74.8397 75.1181 -155.2850 41.3462 -7.1966 -76.2028 -0.0000 30.0267 -32.9728 -13.7773 110.1581 33.1476 -0.0000 26.2537 -41.4544 2.2525 -33.1467 -68.5281 7.0467 5.5353 61.6955 0.0000 46.5185 -6.7429 -0.5727 -85.1680 32.8623 0.0000 -24.3270 40.4042 13.2579 18.7511 71.3836 -0.0000 -0.0000 -25.3280 27.2158 -11.5643 8.5509 0.0000 -0.0000 35.0322 -10.5723 -20.2898 67.8373 -0.0000 0.0000 -14.0618 -27.6053 -11.7818 4.0662 0.0000 -0.0000
 5.2005 25.9778 -0.9457 -87.8245 -3.3811 81.1075 -41.1555 -3.5182 -4.3282 -104.6376 -19.7537 7.2070 -7.3904 75.2435 75.0676 -156.0001 41.1898 -6.5296 -76.2795 -0.0000 29.7262 -32.7261 -13.7714 110.3260 33.1476 -0.0000 26.2537 -41.2721 2.4043 -32.9688 -68.3379 7.0107 5.1580 61.4019 0.0000 46.2394 -6.6186 -0.5367 -85.3846 32.8623 0.0000 -24.3270 40.4650 13.2626 18.7236 71.3829 -0.0000 -0.0000 -25.3583 27.2066 -11.6652 8.4384 -0.0000 -0.0000 35.0911 -10.6502 -20.3736 67.6797 -0.0000 0.0000 -13.6397 -27.4706 -11.6939 3.5169 0.0000 0.0000
 5.2150 25.9933 -0.9810 -87.9017 -3.3817 81.1242 -41.1979 -3.6472 -4.4693 -104.4640 -19.9179 7.4603 -6.6192 75.5268 74.5241 -156.3886 40.8492 -6.1543 -76.3548 -0.0000 29.6482 -32.7116 -13.7449 110.3012 33.1476 -0.0000 26.2537 -41.2047 2.4401 -32.9297 -68.2105 6.8924 5.1092 61.1533 0.0000 46.0433 -6.4631 -0.5016 -85.5807 32.8623 0.0000 -24.3270 40.5050 13.2715 18.7085 71.3743 0.0000 -0.0000 -25.4812 27.1596 -11.4182 8.6105 0.0000 -0.0000 35.1254 -10.7284 -20.4459 67.4828 0.0000 -0.0000 -13.2295 -27.4073 -11.4188 3.1092 -0.0000 0.0000
 5.2252 26.0064 -1.0175 -88.0227 -3.3571 81.1805 -41.2707 -3.6954 -4.7574 -104.4116 -20.4669 7.2294 -7.5786 74.2449 75.2191 -155.1282 40.2078 -6.5430 -76.4169 -0.0000 30.0957 -32.5568 -13.6365 110.2673 33.1476 -0.0000 26.2537 -41.0818 2.4596 -32.7076 -67.8126 6.9958 4.6664 60.7703 0.0000 45.5933 -6.2982 -0.4412 -86.0092 32.8623 0.0000 -24.3270 40.4938 13.2231 18.6990 71.3861 -0.0000 0.0000 -25.5447 27.1376 -11.3730 8.5738 -0.0000 0.0000 35.1127 -10.8691 -20.5387 67.2760 -0.0000 -0.0000 -12.6978 -27.3633 -11.1433 2.8462 -0.0000 -0.0000
